<?xml version="1.0" encoding="utf-8"?>
<!-- Generator: Adobe Illustrator 16.0.0, SVG Export Plug-In . SVG Version: 6.00 Build 0)  -->
<!DOCTYPE svg PUBLIC "-//W3C//DTD SVG 1.1//EN" "http://www.w3.org/Graphics/SVG/1.1/DTD/svg11.dtd">
<svg version="1.1" id="Layer_1" xmlns="http://www.w3.org/2000/svg" xmlns:xlink="http://www.w3.org/1999/xlink" x="0px" y="0px"
	 width="512px" height="512px" viewBox="0 0 512 512" enable-background="new 0 0 512 512" xml:space="preserve">
<g>
	<path fill="#FFFFFF" d="M-612,320v96h96v-96H-612z M-529,403h-70v-70h70V403z"/>
	<path fill="#FFFFFF" d="M256.096,121.424c-11.83-6.636-26.354-2.833-37.472,3.496C175.854,149.249,133.096,174,90.343,198H46
		c-16.568,0-30,13.367-30,29.935v56C16,300.503,29.432,314,46,314h45.727c41.947,24,83.906,48.689,125.855,73.061
		c8.024,4.461,17.159,7.709,26.466,6.896c7.068-0.557,13.874-4.001,18.368-9.507c6.575-7.945,8.694-18.576,8.786-28.652
		c0.242-67.065,0.594-134.144,0.798-201.21C271.898,142.062,267.633,127.978,256.096,121.424z"/>
	<g>
		<path fill="#FFFFFF" d="M345.032,255.991c0,34.899-19.342,65.271-47.881,81.015l15.409,26.689
			c37.749-21.076,63.292-61.396,63.292-107.705c0-46.292-25.53-86.604-63.264-107.685l-15.409,26.69
			C325.703,190.743,345.032,221.106,345.032,255.991z"/>
		<path fill="#FFFFFF" d="M406.677,255.991c0,57.714-31.73,108.011-78.691,134.421l15.412,26.695
			c56.175-31.738,94.102-91.992,94.102-161.117c0-69.109-37.912-129.355-94.069-161.098l-15.415,26.697
			C374.959,148.003,406.677,198.29,406.677,255.991z"/>
		<path fill="#FFFFFF" d="M468.319,255.991c0,80.532-44.123,150.748-109.504,187.817l15.412,26.697
			c74.599-42.399,124.921-122.576,124.921-214.515c0-91.924-50.311-172.091-124.891-214.496l-15.415,26.701
			C424.21,105.269,468.319,175.476,468.319,255.991z"/>
	</g>
</g>
</svg>
